# xmcd
#
# Track frame offsets: 
#        150
#        20419
#        33799
#        50578
#        66830
#        80802
#        98217
#        113964
#        132456
#        144459
#        161875
#        178554
#        194274
#        207690
#
# Disc length: 2930 seconds
#
# Revision: 0
# Processed by: cddbd v1.5.2PL0 Copyright (c) Steve Scherf et al.
# Submitted via: ExactAudioCopy v1.3
#
DISCID=d00b700e
DTITLE=Karo Laurendeau et Christian Lemieux - L'histoire de Notre Amou
DTITLE=r
DYEAR=2019
DGENRE=Country
TTITLE0=Depuis le premier jour
TTITLE1=Si je n'ai pas l'amour
TTITLE2=Seulement l'amour [Don juan]
TTITLE3=Une chance qu'on s'a
TTITLE4=Aimer [Roméo et Juliette]
TTITLE5=L'essentiel
TTITLE6=Changer [Don Juan]
TTITLE7=Quand on n'a que l'amour
TTITLE8=Le temps qu'il nous reste
TTITLE9=Cet anneau d'or
TTITLE10=Comme un soleil
TTITLE11=Je t'attendais
TTITLE12=Théo et Antoinette
TTITLE13=C'est beau la vie
EXTD=
EXTT0=
EXTT1=
EXTT2=
EXTT3=
EXTT4=
EXTT5=
EXTT6=
EXTT7=
EXTT8=
EXTT9=
EXTT10=
EXTT11=
EXTT12=
EXTT13=
PLAYORDER=
